<?xml version="1.0" encoding="UTF-8"?>
<svg xmlns="http://www.w3.org/2000/svg" viewBox="0 0 566.93 566.93">
  <g style="isolation: isolate;">
    <g id="a" data-name="Layer 1">
      <g>
        <circle cx="330.07" cy="229.63" r="130.53" style="fill: #ff0; isolation: isolate; mix-blend-mode: multiply;"/>
        <circle cx="330.07" cy="337.3" r="130.53" style="fill: #f0f; isolation: isolate; mix-blend-mode: multiply;"/>
        <circle cx="236.83" cy="283.46" r="130.53" style="fill: aqua; isolation: isolate; mix-blend-mode: multiply;"/>
      </g>
      <g>
        <path d="M234.35,192.68c-.42-.62-.92-1.12-1.53-1.5-.83-.52-1.79-.78-2.87-.78s-2.07.25-3.02.76c-.95.5-1.72,1.25-2.3,2.23s-.87,2.19-.87,3.63.29,2.62.87,3.6,1.34,1.72,2.3,2.23c.95.5,1.96.76,3.02.76s2.04-.26,2.87-.77c.6-.37,1.11-.87,1.53-1.5v1.96c0,.88-.16,1.6-.49,2.18-.33.58-.76,1.01-1.29,1.29-.53.28-1.1.42-1.69.42-.65,0-1.22-.11-1.71-.34-.49-.22-.87-.54-1.15-.94-.28-.4-.43-.88-.45-1.44h-3.56c.07,1.12.38,2.11.91,2.98.53.87,1.3,1.54,2.31,2.02s2.26.71,3.75.71c1.23,0,2.37-.24,3.42-.71s1.88-1.23,2.51-2.25c.63-1.03.94-2.33.94-3.92v-12.6h-3.5v2.01ZM233.86,198.97c-.33.53-.75.93-1.26,1.2-.51.27-1.04.41-1.58.41-.62,0-1.19-.14-1.74-.42-.54-.28-.97-.69-1.29-1.22-.32-.53-.48-1.18-.48-1.95s.16-1.44.48-1.97c.32-.53.75-.94,1.29-1.22.54-.28,1.12-.42,1.74-.42.41,0,.81.08,1.2.24s.75.39,1.08.69c.33.3.58.67.77,1.12.19.45.28.97.28,1.57,0,.78-.16,1.44-.49,1.97Z" style="fill: #fff; stroke: #000; stroke-miterlimit: 10;"/>
        <path d="M248.01,190.36c-.67,0-1.33.24-1.96.71-.43.32-.8.73-1.12,1.19v-1.6h-3.56v12.88h3.56v-6.83c0-.62.08-1.14.24-1.58.16-.44.4-.78.71-1.02.32-.24.7-.36,1.15-.36.37,0,.69.06.94.18.25.12.5.29.74.52l1.65-3.08c-.26-.34-.6-.59-1.02-.76-.42-.17-.86-.25-1.33-.25Z" style="fill: #fff; stroke: #000; stroke-miterlimit: 10;"/>
        <path d="M261.6,191.16c-1-.51-2.21-.77-3.63-.77s-2.65.28-3.7.83c-1.05.55-1.85,1.33-2.42,2.32s-.85,2.19-.85,3.57.28,2.54.85,3.54,1.38,1.78,2.42,2.34c1.04.56,2.27.84,3.67.84,1.55,0,2.88-.3,3.99-.91,1.11-.61,2-1.52,2.67-2.73l-3.16-.98c-.37.62-.85,1.08-1.41,1.39-.57.31-1.26.46-2.06.46-.71,0-1.32-.16-1.82-.48-.5-.32-.88-.77-1.13-1.37-.16-.37-.25-.81-.31-1.29h9.9c.02-.11.03-.26.04-.45,0-.19.01-.36.01-.53,0-1.38-.26-2.56-.78-3.54-.52-.98-1.28-1.73-2.28-2.24ZM256.14,193.4c.48-.31,1.07-.46,1.78-.46.58,0,1.08.13,1.51.39.43.26.76.62.99,1.06.19.36.28.8.32,1.29h-5.95c.07-.33.15-.64.26-.91.25-.61.62-1.06,1.09-1.37Z" style="fill: #fff; stroke: #000; stroke-miterlimit: 10;"/>
        <path d="M277.14,191.16c-1-.51-2.21-.77-3.63-.77s-2.65.28-3.7.83c-1.05.55-1.85,1.33-2.42,2.32s-.85,2.19-.85,3.57.28,2.54.85,3.54,1.38,1.78,2.42,2.34c1.04.56,2.27.84,3.67.84,1.55,0,2.88-.3,3.99-.91,1.11-.61,2-1.52,2.67-2.73l-3.16-.98c-.37.62-.85,1.08-1.41,1.39-.57.31-1.26.46-2.06.46-.71,0-1.32-.16-1.82-.48-.5-.32-.88-.77-1.13-1.37-.16-.37-.25-.81-.31-1.29h9.9c.02-.11.03-.26.04-.45,0-.19.01-.36.01-.53,0-1.38-.26-2.56-.78-3.54-.52-.98-1.28-1.73-2.28-2.24ZM271.68,193.4c.48-.31,1.07-.46,1.78-.46.58,0,1.08.13,1.51.39.43.26.76.62.99,1.06.19.36.28.8.32,1.29h-5.95c.07-.33.15-.64.26-.91.25-.61.62-1.06,1.09-1.37Z" style="fill: #fff; stroke: #000; stroke-miterlimit: 10;"/>
        <path d="M293.9,191.69c-.75-.87-1.89-1.3-3.42-1.3-.92,0-1.69.19-2.34.57-.64.38-1.16.94-1.55,1.67v-1.96h-3.64v12.88h3.64v-7.84c0-.54.1-1.01.31-1.4.21-.39.5-.69.9-.91.39-.21.84-.32,1.34-.32.75,0,1.29.22,1.62.67.34.45.5,1.1.5,1.96v7.84h3.75v-8.23c0-1.55-.37-2.76-1.12-3.63Z" style="fill: #fff; stroke: #000; stroke-miterlimit: 10;"/>
      </g>
      <g>
        <polygon points="342.49 166.79 339.26 158.8 335.23 158.8 340.57 170.4 337.33 177.84 341.05 177.84 349.45 158.8 345.67 158.8 342.49 166.79" style="fill: #fff; stroke: #000; stroke-miterlimit: 10;"/>
        <path d="M360.38,159.29c-1-.51-2.21-.77-3.63-.77s-2.65.28-3.7.83c-1.05.55-1.85,1.33-2.42,2.32-.57,1-.85,2.19-.85,3.57s.28,2.54.85,3.54c.57,1,1.38,1.78,2.42,2.34,1.04.56,2.27.84,3.67.84,1.55,0,2.88-.3,3.99-.91s2-1.52,2.67-2.73l-3.16-.98c-.37.62-.85,1.08-1.41,1.39-.57.31-1.26.46-2.06.46-.71,0-1.32-.16-1.82-.48-.5-.32-.88-.77-1.13-1.37-.16-.37-.25-.81-.31-1.29h9.9c.02-.11.03-.26.04-.45,0-.19.01-.36.01-.53,0-1.38-.26-2.56-.78-3.54-.52-.98-1.28-1.73-2.28-2.24ZM354.92,161.53c.48-.31,1.07-.46,1.78-.46.58,0,1.08.13,1.51.39.43.26.76.62.99,1.06.19.36.28.8.32,1.29h-5.95c.07-.33.15-.64.26-.91.25-.61.62-1.06,1.09-1.37Z" style="fill: #fff; stroke: #000; stroke-miterlimit: 10;"/>
        <rect x="366.19" y="149.84" width="3.64" height="21.84" style="fill: #fff; stroke: #000; stroke-miterlimit: 10;"/>
        <rect x="373.42" y="149.84" width="3.64" height="21.84" style="fill: #fff; stroke: #000; stroke-miterlimit: 10;"/>
        <path d="M390.57,159.36c-1.07-.56-2.29-.84-3.65-.84s-2.58.28-3.65.84c-1.07.56-1.92,1.34-2.55,2.35-.62,1.01-.94,2.18-.94,3.53s.31,2.5.94,3.51c.63,1.02,1.47,1.81,2.55,2.37,1.07.56,2.29.84,3.65.84s2.58-.28,3.65-.84c1.07-.56,1.92-1.35,2.55-2.37.62-1.02.94-2.19.94-3.51s-.31-2.52-.94-3.53c-.63-1.01-1.47-1.79-2.55-2.35ZM389.9,167.16c-.31.55-.72.98-1.25,1.29-.52.31-1.1.46-1.74.46s-1.21-.15-1.74-.46c-.52-.31-.94-.74-1.25-1.29-.31-.55-.46-1.19-.46-1.92s.15-1.37.46-1.93c.31-.56.72-.99,1.25-1.29.52-.3,1.1-.45,1.74-.45s1.21.15,1.74.45.94.73,1.25,1.29c.31.56.46,1.2.46,1.93s-.15,1.37-.46,1.92Z" style="fill: #fff; stroke: #000; stroke-miterlimit: 10;"/>
        <polygon points="411.41 158.8 408.56 165.97 404.78 157.82 401.14 165.94 398.31 158.8 394.45 158.8 400.77 172.55 404.81 164.35 408.95 172.55 415.25 158.8 411.41 158.8" style="fill: #fff; stroke: #000; stroke-miterlimit: 10;"/>
      </g>
      <g>
        <path d="M384.72,282.73c0-.62.08-1.14.24-1.58s.4-.78.71-1.02c.32-.24.7-.36,1.15-.36.37,0,.69.06.94.18.25.12.5.29.74.52l1.65-3.08c-.26-.34-.6-.59-1.02-.76-.42-.17-.86-.25-1.33-.25-.67,0-1.33.24-1.96.71-.43.32-.8.73-1.12,1.19v-1.6h-3.56v12.88h3.56v-6.83Z" style="fill: #fff; stroke: #000; stroke-miterlimit: 10;"/>
        <path d="M401.73,288.93c1.11-.61,2-1.52,2.67-2.73l-3.16-.98c-.37.62-.84,1.08-1.41,1.39-.57.31-1.26.46-2.06.46-.71,0-1.32-.16-1.82-.48s-.88-.77-1.13-1.37c-.16-.37-.25-.81-.31-1.29h9.9c.02-.11.03-.26.04-.45,0-.19.01-.36.01-.53,0-1.38-.26-2.56-.78-3.54-.52-.98-1.28-1.73-2.28-2.24-1-.51-2.21-.77-3.63-.77s-2.65.28-3.7.83c-1.05.55-1.85,1.33-2.42,2.32-.57,1-.85,2.19-.85,3.57s.29,2.54.85,3.54c.57,1,1.38,1.78,2.42,2.34,1.04.56,2.27.84,3.67.84,1.55,0,2.88-.3,3.99-.91ZM395.93,279.41c.48-.31,1.07-.46,1.78-.46.58,0,1.08.13,1.51.39.43.26.76.62.99,1.06.19.36.28.8.32,1.29h-5.95c.07-.33.15-.64.26-.91.25-.61.62-1.06,1.09-1.37Z" style="fill: #fff; stroke: #000; stroke-miterlimit: 10;"/>
        <path d="M409.5,289.06c.95.52,1.96.78,3.02.78s2.04-.27,2.87-.81c.6-.39,1.11-.91,1.53-1.55v2.08h3.64v-21.84h-3.64v11.04c-.42-.63-.92-1.15-1.53-1.55-.83-.54-1.79-.81-2.87-.81s-2.07.26-3.02.78-1.72,1.28-2.3,2.28c-.58,1-.87,2.22-.87,3.65s.29,2.63.87,3.64c.58,1.01,1.34,1.77,2.3,2.3ZM410.56,281.14c.32-.56.75-.99,1.29-1.29s1.12-.45,1.74-.45c.54,0,1.07.14,1.58.43.51.29.93.71,1.26,1.27.33.56.49,1.23.49,2.02s-.16,1.46-.49,2.02c-.33.56-.75.98-1.26,1.27-.51.29-1.04.43-1.58.43-.62,0-1.2-.15-1.74-.45s-.97-.73-1.29-1.29c-.32-.56-.48-1.22-.48-1.99s.16-1.43.48-1.99Z" style="fill: #fff; stroke: #000; stroke-miterlimit: 10;"/>
      </g>
      <g>
        <path d="M231.49,372.54c.42.65.94,1.18,1.55,1.58.83.54,1.78.81,2.84.81s2.1-.26,3.04-.78,1.7-1.29,2.28-2.3c.58-1.01.87-2.22.87-3.64s-.29-2.66-.87-3.65c-.58-1-1.34-1.76-2.28-2.28s-1.96-.78-3.04-.78-2.01.27-2.84.81c-.61.4-1.13.93-1.55,1.57v-11.06h-3.64v21.84h3.64v-2.11ZM231.98,366.2c.33-.56.75-.98,1.26-1.27.51-.29,1.04-.43,1.58-.43.63,0,1.22.15,1.75.45.53.3.96.73,1.27,1.29.32.56.48,1.22.48,1.99s-.16,1.43-.48,1.99c-.32.56-.74.99-1.27,1.29-.53.3-1.12.45-1.75.45-.54,0-1.07-.14-1.58-.43-.51-.29-.93-.71-1.26-1.27-.33-.56-.49-1.23-.49-2.02s.16-1.46.49-2.02Z" style="fill: #fff; stroke: #000; stroke-miterlimit: 10;"/>
        <rect x="244.79" y="352.81" width="3.64" height="21.84" style="fill: #fff; stroke: #000; stroke-miterlimit: 10;"/>
        <path d="M264.08,374.65v-12.88h-3.61v7.84c0,.54-.11,1.01-.32,1.4-.21.39-.51.7-.9.91-.38.21-.84.32-1.36.32-.75,0-1.29-.23-1.62-.69-.34-.46-.5-1.11-.5-1.95v-7.84h-3.75v8.23c0,1.53.38,2.74,1.13,3.61.76.88,1.9,1.32,3.43,1.32.91,0,1.69-.19,2.32-.57.63-.38,1.16-.94,1.57-1.67v1.96h3.61Z" style="fill: #fff; stroke: #000; stroke-miterlimit: 10;"/>
        <path d="M267.66,364.64c-.57,1-.85,2.19-.85,3.57s.28,2.54.85,3.54c.57,1,1.38,1.78,2.42,2.34,1.04.56,2.27.84,3.67.84,1.55,0,2.88-.3,3.99-.91,1.11-.61,2-1.52,2.67-2.73l-3.16-.98c-.37.62-.85,1.08-1.41,1.39-.57.31-1.26.46-2.06.46-.71,0-1.32-.16-1.82-.48-.5-.32-.88-.77-1.13-1.37-.16-.37-.25-.81-.31-1.29h9.9c.02-.11.03-.26.04-.45,0-.19.01-.36.01-.53,0-1.38-.26-2.56-.78-3.54-.52-.98-1.28-1.73-2.28-2.24-1-.51-2.21-.77-3.63-.77s-2.65.28-3.7.83c-1.05.55-1.85,1.33-2.42,2.32ZM271.94,364.5c.48-.31,1.07-.46,1.78-.46.58,0,1.08.13,1.51.39.43.26.76.62.99,1.06.19.36.28.8.32,1.29h-5.95c.07-.33.15-.64.26-.91.25-.61.62-1.06,1.09-1.37Z" style="fill: #fff; stroke: #000; stroke-miterlimit: 10;"/>
      </g>
      <g>
        <path d="M155.94,269.85c-1.36,0-2.59.28-3.68.84-1.09.56-1.95,1.34-2.58,2.35-.62,1.01-.94,2.18-.94,3.53s.31,2.5.94,3.51c.63,1.02,1.48,1.81,2.58,2.37,1.09.56,2.32.84,3.68.84.95,0,1.79-.12,2.51-.35.72-.23,1.3-.55,1.75-.97v-3.72c-.22.41-.55.77-.97,1.08-.42.31-.89.55-1.41.73-.52.18-1.06.27-1.62.27-.69,0-1.32-.16-1.89-.48s-1.02-.76-1.36-1.32c-.34-.56-.5-1.21-.5-1.96s.17-1.37.5-1.93c.34-.56.79-1,1.36-1.33.57-.33,1.2-.49,1.89-.49.52,0,1.04.08,1.57.25s1,.41,1.44.71c.44.31.77.67.99,1.08v-3.72c-.45-.39-1.03-.7-1.75-.94-.72-.23-1.55-.35-2.51-.35Z" style="fill: #fff; stroke: #000; stroke-miterlimit: 10;"/>
        <polygon points="168.69 278.12 165.46 270.13 161.43 270.13 166.78 281.72 163.53 289.17 167.25 289.17 175.65 270.13 171.87 270.13 168.69 278.12" style="fill: #fff; stroke: #000; stroke-miterlimit: 10;"/>
        <path d="M185.76,270.27c-.86-.32-1.84-.48-2.94-.48-1.19,0-2.28.16-3.25.49-.97.33-1.79.67-2.46,1.02l1.34,2.46c.19-.13.48-.29.87-.48.39-.19.86-.35,1.4-.48.54-.13,1.11-.2,1.71-.2.39,0,.75.04,1.06.11.32.08.59.2.83.36s.41.38.52.63c.11.25.17.56.17.91v1.37c-.43-.24-.96-.45-1.58-.62-.63-.17-1.35-.25-2.17-.25-1.61,0-2.85.36-3.72,1.09-.88.73-1.32,1.72-1.32,2.97,0,.88.21,1.62.63,2.23s.97,1.07,1.67,1.39c.69.32,1.44.48,2.24.48s1.54-.14,2.25-.42c.72-.28,1.31-.7,1.76-1.26.09-.11.17-.23.24-.35v1.75h3.5v-9.13c0-.88-.24-1.62-.73-2.23-.49-.61-1.16-1.07-2.02-1.39ZM184.58,279.44c-.28.44-.64.77-1.09,1.01-.45.23-.95.35-1.51.35-.39,0-.75-.07-1.08-.21-.33-.14-.58-.35-.77-.62s-.28-.59-.28-.97.08-.69.25-.94.43-.45.78-.59.81-.21,1.37-.21c.69,0,1.35.09,1.97.28.27.08.52.19.77.3h0c0,.62-.14,1.15-.42,1.59Z" style="fill: #fff; stroke: #000; stroke-miterlimit: 10;"/>
        <path d="M199.4,269.85c-.92,0-1.69.19-2.34.57-.64.38-1.16.94-1.55,1.67v-1.96h-3.64v12.88h3.64v-7.84c0-.54.1-1.01.31-1.4.21-.39.5-.7.9-.91.39-.21.84-.32,1.34-.32.75,0,1.29.22,1.62.67.34.45.5,1.1.5,1.96v7.84h3.75v-8.23c0-1.55-.37-2.76-1.12-3.63-.75-.87-1.89-1.3-3.42-1.3Z" style="fill: #fff; stroke: #000; stroke-miterlimit: 10;"/>
      </g>
      <g>
        <path d="M329.69,399.87c-.6-.38-1.37-.57-2.32-.57-.88,0-1.66.19-2.34.56-.68.37-1.25.92-1.72,1.65-.28-.73-.73-1.28-1.34-1.65s-1.4-.56-2.35-.56c-.86,0-1.6.19-2.21.56-.62.37-1.11.92-1.48,1.62v-1.9h-3.5v12.88h3.5v-7.84c0-.56.09-1.04.28-1.44.19-.4.45-.7.78-.9s.73-.29,1.18-.29c.67,0,1.16.22,1.46.66s.45,1.1.45,1.97v7.84h3.61v-7.84c0-.56.09-1.04.28-1.44.19-.4.45-.7.78-.9.34-.2.73-.29,1.18-.29.67,0,1.16.22,1.46.66.3.44.45,1.1.45,1.97v7.84h3.64v-8.23c0-1.05-.15-1.94-.43-2.67s-.73-1.3-1.33-1.68Z" style="fill: #fff; stroke: #000; stroke-miterlimit: 10;"/>
        <path d="M343.53,399.72c-.86-.32-1.84-.48-2.94-.48-1.2,0-2.28.16-3.25.49s-1.79.67-2.46,1.02l1.34,2.46c.19-.13.48-.29.87-.48.39-.19.86-.34,1.4-.48.54-.13,1.11-.2,1.71-.2.39,0,.75.04,1.06.11.32.07.59.2.83.36s.41.38.52.63c.11.25.17.56.17.91v1.37c-.43-.24-.96-.45-1.58-.62s-1.35-.25-2.17-.25c-1.61,0-2.85.36-3.72,1.09-.88.73-1.32,1.72-1.32,2.97,0,.88.21,1.62.63,2.23.42.61.98,1.07,1.67,1.39.69.32,1.44.48,2.24.48s1.54-.14,2.25-.42,1.31-.7,1.76-1.26c.09-.11.16-.23.24-.35v1.75h3.5v-9.13c0-.88-.24-1.62-.73-2.23-.49-.61-1.16-1.07-2.02-1.39ZM342.35,408.89c-.28.44-.64.77-1.09,1.01s-.95.35-1.51.35c-.39,0-.75-.07-1.08-.21-.33-.14-.58-.34-.77-.62-.19-.27-.28-.59-.28-.97s.08-.69.25-.94.43-.45.78-.59c.35-.14.81-.21,1.37-.21.69,0,1.35.09,1.97.28.27.08.52.19.77.3h0c0,.62-.14,1.15-.42,1.59Z" style="fill: #fff; stroke: #000; stroke-miterlimit: 10;"/>
        <path d="M359.35,401.59c-.42-.62-.92-1.12-1.53-1.5-.83-.52-1.79-.78-2.87-.78s-2.07.25-3.02.76c-.95.5-1.72,1.25-2.3,2.23-.58.98-.87,2.19-.87,3.63s.29,2.62.87,3.6c.58.98,1.34,1.72,2.3,2.23s1.96.76,3.02.76,2.04-.26,2.87-.77c.6-.37,1.11-.87,1.53-1.5v1.96c0,.88-.16,1.6-.49,2.18-.33.58-.76,1.01-1.29,1.29-.53.28-1.1.42-1.69.42-.65,0-1.22-.11-1.71-.34-.49-.22-.87-.54-1.15-.94s-.43-.88-.45-1.44h-3.56c.07,1.12.38,2.11.91,2.98s1.3,1.54,2.31,2.02c1.01.48,2.26.71,3.75.71,1.23,0,2.37-.24,3.42-.71,1.05-.48,1.88-1.23,2.51-2.25.63-1.03.94-2.33.94-3.92v-12.6h-3.5v2.01ZM358.86,407.88c-.33.53-.75.93-1.26,1.2-.51.27-1.04.41-1.58.41-.62,0-1.2-.14-1.74-.42s-.97-.69-1.29-1.22c-.32-.53-.48-1.18-.48-1.95s.16-1.44.48-1.97c.32-.53.75-.94,1.29-1.22.54-.28,1.12-.42,1.74-.42.41,0,.81.08,1.2.24.39.16.75.39,1.08.69.33.3.58.67.77,1.12.19.45.28.97.28,1.57,0,.78-.16,1.44-.49,1.97Z" style="fill: #fff; stroke: #000; stroke-miterlimit: 10;"/>
        <path d="M376.1,400.07c-1-.51-2.21-.77-3.63-.77s-2.65.28-3.7.83c-1.05.55-1.85,1.33-2.42,2.32-.57,1-.85,2.19-.85,3.57s.29,2.54.85,3.54c.57,1,1.38,1.78,2.42,2.34,1.04.56,2.27.84,3.67.84,1.55,0,2.88-.3,3.99-.91,1.11-.61,2-1.52,2.67-2.73l-3.16-.98c-.37.62-.84,1.08-1.41,1.39-.57.31-1.26.46-2.06.46-.71,0-1.32-.16-1.82-.48s-.88-.77-1.13-1.37c-.16-.37-.25-.81-.31-1.29h9.9c.02-.11.03-.26.04-.45,0-.19.01-.36.01-.53,0-1.38-.26-2.56-.78-3.54-.52-.98-1.28-1.73-2.28-2.24ZM370.64,402.31c.48-.31,1.07-.46,1.78-.46.58,0,1.08.13,1.51.39.43.26.76.62.99,1.06.19.36.28.8.32,1.29h-5.95c.07-.33.15-.64.26-.91.25-.61.62-1.06,1.09-1.37Z" style="fill: #fff; stroke: #000; stroke-miterlimit: 10;"/>
        <path d="M389.45,399.3c-.92,0-1.69.19-2.34.57-.64.38-1.16.94-1.55,1.67v-1.96h-3.64v12.88h3.64v-7.84c0-.54.1-1.01.31-1.4.21-.39.5-.69.9-.91.39-.21.84-.32,1.34-.32.75,0,1.29.22,1.62.67s.5,1.1.5,1.96v7.84h3.75v-8.23c0-1.55-.37-2.76-1.12-3.63-.75-.87-1.89-1.3-3.42-1.3Z" style="fill: #fff; stroke: #000; stroke-miterlimit: 10;"/>
        <polygon points="401.63 395.1 398.13 395.1 398.13 399.58 395.91 399.58 395.91 402.63 398.13 402.63 398.13 412.46 401.63 412.46 401.63 402.63 403.87 402.63 403.87 399.58 401.63 399.58 401.63 395.1" style="fill: #fff; stroke: #000; stroke-miterlimit: 10;"/>
        <path d="M414.28,399.72c-.86-.32-1.84-.48-2.94-.48-1.2,0-2.28.16-3.25.49s-1.79.67-2.46,1.02l1.34,2.46c.19-.13.48-.29.87-.48.39-.19.86-.34,1.4-.48.54-.13,1.11-.2,1.71-.2.39,0,.75.04,1.06.11.32.07.59.2.83.36s.41.38.52.63c.11.25.17.56.17.91v1.37c-.43-.24-.96-.45-1.58-.62s-1.35-.25-2.17-.25c-1.61,0-2.85.36-3.72,1.09-.88.73-1.32,1.72-1.32,2.97,0,.88.21,1.62.63,2.23.42.61.98,1.07,1.67,1.39.69.32,1.44.48,2.24.48s1.54-.14,2.25-.42,1.31-.7,1.76-1.26c.09-.11.16-.23.24-.35v1.75h3.5v-9.13c0-.88-.24-1.62-.73-2.23-.49-.61-1.16-1.07-2.02-1.39ZM413.11,408.89c-.28.44-.64.77-1.09,1.01s-.95.35-1.51.35c-.39,0-.75-.07-1.08-.21-.33-.14-.58-.34-.77-.62-.19-.27-.28-.59-.28-.97s.08-.69.25-.94.43-.45.78-.59c.35-.14.81-.21,1.37-.21.69,0,1.35.09,1.97.28.27.08.52.19.77.3h0c0,.62-.14,1.15-.42,1.59Z" style="fill: #fff; stroke: #000; stroke-miterlimit: 10;"/>
      </g>
      <g>
        <path d="M261.79,281.87c-.94-.52-1.96-.78-3.04-.78s-2.01.27-2.84.81c-.61.4-1.13.92-1.55,1.57v-11.06h-3.64v21.84h3.64v-2.11c.42.65.94,1.18,1.55,1.58.83.54,1.78.81,2.84.81s2.1-.26,3.04-.78c.94-.52,1.7-1.29,2.28-2.3s.87-2.22.87-3.64-.29-2.66-.87-3.65c-.58-1-1.34-1.76-2.28-2.28ZM260.71,289.79c-.32.56-.74.99-1.27,1.29-.53.3-1.12.45-1.75.45-.54,0-1.07-.14-1.58-.43-.51-.29-.93-.71-1.26-1.27-.33-.56-.49-1.23-.49-2.02s.16-1.46.49-2.02c.33-.56.75-.98,1.26-1.27.51-.29,1.04-.43,1.58-.43.63,0,1.22.15,1.75.45.53.3.96.73,1.27,1.29.32.56.48,1.22.48,1.99s-.16,1.43-.48,1.99Z" style="fill: #fff;"/>
        <rect x="267.66" y="272.4" width="3.64" height="21.84" style="fill: #fff;"/>
        <path d="M283.37,281.5c-.86-.32-1.84-.48-2.94-.48-1.19,0-2.28.16-3.25.49s-1.79.67-2.46,1.02l1.34,2.46c.19-.13.48-.29.87-.48.39-.19.86-.34,1.4-.48.54-.13,1.11-.2,1.71-.2.39,0,.75.04,1.06.11.32.07.59.2.83.36s.41.38.52.63c.11.25.17.56.17.91v1.37c-.43-.24-.96-.45-1.58-.62-.63-.17-1.35-.25-2.17-.25-1.61,0-2.85.36-3.72,1.09-.88.73-1.32,1.72-1.32,2.97,0,.88.21,1.62.63,2.23.42.61.97,1.07,1.67,1.39.69.32,1.44.48,2.24.48s1.54-.14,2.25-.42c.72-.28,1.31-.7,1.76-1.26.09-.11.17-.23.24-.35v1.75h3.5v-9.13c0-.88-.24-1.62-.73-2.23s-1.16-1.07-2.02-1.39ZM282.19,290.68c-.28.44-.64.77-1.09,1.01-.45.23-.95.35-1.51.35-.39,0-.75-.07-1.08-.21s-.58-.34-.77-.62c-.19-.27-.28-.59-.28-.97s.08-.69.25-.94.43-.45.78-.59c.35-.14.81-.21,1.37-.21.69,0,1.35.09,1.97.28.27.08.52.19.77.3h0c0,.62-.14,1.15-.42,1.59Z" style="fill: #fff;"/>
        <path d="M295.71,281.08c-1.36,0-2.59.28-3.68.84-1.09.56-1.95,1.34-2.58,2.35-.63,1.01-.94,2.18-.94,3.53s.31,2.5.94,3.51c.62,1.02,1.48,1.81,2.58,2.37,1.09.56,2.32.84,3.68.84.95,0,1.79-.12,2.51-.35.72-.23,1.3-.56,1.75-.97v-3.72c-.22.41-.55.77-.97,1.08-.42.31-.89.55-1.41.73-.52.18-1.06.27-1.62.27-.69,0-1.32-.16-1.89-.48-.57-.32-1.02-.76-1.36-1.32-.34-.56-.5-1.21-.5-1.96s.17-1.37.5-1.93c.34-.56.79-1,1.36-1.33.57-.33,1.2-.49,1.89-.49.52,0,1.04.08,1.57.25.52.17,1,.41,1.44.71.44.31.77.67.99,1.08v-3.72c-.45-.39-1.03-.7-1.75-.94s-1.55-.35-2.51-.35Z" style="fill: #fff;"/>
        <polygon points="315.65 281.36 311.31 281.36 306.58 285.91 306.58 272.4 303.08 272.4 303.08 294.24 306.58 294.24 306.58 287.69 311.9 294.24 316.21 294.24 310.11 286.68 315.65 281.36" style="fill: #fff;"/>
      </g>
      <g>
        <polygon points="64.15 80.72 68.3 88.93 74.6 75.18 70.76 75.18 67.91 82.35 64.13 74.2 60.49 82.32 57.66 75.18 53.79 75.18 60.12 88.93 64.15 80.72"/>
        <path d="M79.95,80.22c0-.54.1-1.01.31-1.4.21-.39.5-.69.9-.91.39-.21.84-.32,1.34-.32.77,0,1.31.22,1.64.67.33.45.49,1.1.49,1.96v7.84h3.64v-8.37c0-1.06-.16-1.96-.48-2.7-.32-.74-.8-1.29-1.46-1.67-.65-.37-1.48-.56-2.49-.56s-1.86.24-2.55.73c-.57.4-1.01.91-1.34,1.54v-10.81h-3.64v21.84h3.64v-7.84Z"/>
        <path d="M93.86,68.15c-.6,0-1.11.19-1.54.57-.43.38-.64.87-.64,1.47s.21,1.06.64,1.46c.43.39.94.59,1.54.59s1.11-.2,1.53-.59c.42-.39.63-.88.63-1.46s-.21-1.09-.63-1.47c-.42-.38-.93-.57-1.53-.57Z"/>
        <rect x="92.07" y="75.18" width="3.53" height="12.88"/>
        <polygon points="99.99 88.06 103.49 88.06 103.49 78.23 105.73 78.23 105.73 75.18 103.49 75.18 103.49 70.7 99.99 70.7 99.99 75.18 97.78 75.18 97.78 78.23 99.99 78.23 99.99 88.06"/>
        <path d="M119.68,77.91c-.52-.98-1.28-1.73-2.28-2.24-1-.51-2.21-.77-3.63-.77s-2.65.28-3.7.83c-1.05.55-1.85,1.33-2.42,2.32-.57,1-.85,2.19-.85,3.57s.28,2.54.85,3.54c.57,1,1.38,1.78,2.42,2.34,1.04.56,2.27.84,3.67.84,1.55,0,2.88-.3,3.99-.91,1.11-.61,2-1.52,2.67-2.73l-3.16-.98c-.37.62-.85,1.08-1.41,1.39-.57.31-1.26.46-2.06.46-.71,0-1.32-.16-1.82-.48-.5-.32-.88-.77-1.13-1.37-.16-.37-.25-.81-.31-1.29h9.9c.02-.11.03-.26.04-.45,0-.19.01-.36.01-.53,0-1.38-.26-2.56-.78-3.54ZM111.93,77.91c.48-.31,1.07-.46,1.78-.46.58,0,1.08.13,1.51.39.43.26.76.62.99,1.06.19.36.28.8.32,1.29h-5.95c.07-.33.15-.64.26-.91.25-.61.62-1.06,1.09-1.37Z"/>
      </g>
    </g>
  </g>
</svg>