<?xml version="1.0" encoding="UTF-8"?>
<svg xmlns="http://www.w3.org/2000/svg" viewBox="0 0 566.93 566.93">
  <g style="isolation: isolate;">
    <g id="a" data-name="Layer 1">
      <rect width="566.93" height="566.93"/>
      <g>
        <circle cx="330.1" cy="283.46" r="130.53" style="fill: red; isolation: isolate; mix-blend-mode: screen;"/>
        <circle cx="236.86" cy="229.63" r="130.53" style="fill: lime; isolation: isolate; mix-blend-mode: screen;"/>
        <circle cx="236.86" cy="337.3" r="130.53" style="fill: blue; isolation: isolate; mix-blend-mode: screen;"/>
      </g>
      <g>
        <path d="M171.81,152.05c-.42-.62-.92-1.12-1.53-1.5-.83-.52-1.79-.78-2.87-.78s-2.07.25-3.02.76c-.95.5-1.72,1.25-2.3,2.23s-.87,2.19-.87,3.63.29,2.62.87,3.6,1.34,1.72,2.3,2.23c.95.5,1.96.76,3.02.76s2.04-.26,2.87-.77c.6-.37,1.11-.87,1.53-1.5v1.96c0,.88-.16,1.6-.49,2.18-.33.58-.76,1.01-1.29,1.29-.53.28-1.1.42-1.69.42-.65,0-1.22-.11-1.71-.34-.49-.22-.87-.54-1.15-.94-.28-.4-.43-.88-.45-1.44h-3.56c.07,1.12.38,2.11.91,2.98.53.87,1.3,1.54,2.31,2.02s2.26.71,3.75.71c1.23,0,2.37-.24,3.42-.71s1.88-1.23,2.51-2.25c.63-1.03.94-2.33.94-3.92v-12.6h-3.5v2.01ZM171.32,158.34c-.33.53-.75.93-1.26,1.2-.51.27-1.04.41-1.58.41-.62,0-1.19-.14-1.74-.42-.54-.28-.97-.69-1.29-1.22-.32-.53-.48-1.18-.48-1.95s.16-1.44.48-1.97c.32-.53.75-.94,1.29-1.22.54-.28,1.12-.42,1.74-.42.41,0,.81.08,1.2.24s.75.39,1.08.69c.33.3.58.67.77,1.12.19.45.28.97.28,1.57,0,.78-.16,1.44-.49,1.97Z" style="fill: #fff; stroke: #000; stroke-miterlimit: 10;"/>
        <path d="M185.47,149.73c-.67,0-1.33.24-1.96.71-.43.32-.8.73-1.12,1.19v-1.6h-3.56v12.88h3.56v-6.83c0-.62.08-1.14.24-1.58.16-.44.4-.78.71-1.02.32-.24.7-.36,1.15-.36.37,0,.69.06.94.18.25.12.5.29.74.52l1.65-3.08c-.26-.34-.6-.59-1.02-.76-.42-.17-.86-.25-1.33-.25Z" style="fill: #fff; stroke: #000; stroke-miterlimit: 10;"/>
        <path d="M199.07,150.53c-1-.51-2.21-.77-3.63-.77s-2.65.28-3.7.83c-1.05.55-1.85,1.33-2.42,2.32s-.85,2.19-.85,3.57.28,2.54.85,3.54,1.38,1.78,2.42,2.34c1.04.56,2.27.84,3.67.84,1.55,0,2.88-.3,3.99-.91,1.11-.61,2-1.52,2.67-2.73l-3.16-.98c-.37.62-.85,1.08-1.41,1.39-.57.31-1.26.46-2.06.46-.71,0-1.32-.16-1.82-.48-.5-.32-.88-.77-1.13-1.37-.16-.37-.25-.81-.31-1.29h9.9c.02-.11.03-.26.04-.45,0-.19.01-.36.01-.53,0-1.38-.26-2.56-.78-3.54-.52-.98-1.28-1.73-2.28-2.24ZM193.61,152.77c.48-.31,1.07-.46,1.78-.46.58,0,1.08.13,1.51.39.43.26.76.62.99,1.06.19.36.28.8.32,1.29h-5.95c.07-.33.15-.64.26-.91.25-.61.62-1.06,1.09-1.37Z" style="fill: #fff; stroke: #000; stroke-miterlimit: 10;"/>
        <path d="M214.61,150.53c-1-.51-2.21-.77-3.63-.77s-2.65.28-3.7.83c-1.05.55-1.85,1.33-2.42,2.32s-.85,2.19-.85,3.57.28,2.54.85,3.54,1.38,1.78,2.42,2.34c1.04.56,2.27.84,3.67.84,1.55,0,2.88-.3,3.99-.91,1.11-.61,2-1.52,2.67-2.73l-3.16-.98c-.37.62-.85,1.08-1.41,1.39-.57.31-1.26.46-2.06.46-.71,0-1.32-.16-1.82-.48-.5-.32-.88-.77-1.13-1.37-.16-.37-.25-.81-.31-1.29h9.9c.02-.11.03-.26.04-.45,0-.19.01-.36.01-.53,0-1.38-.26-2.56-.78-3.54-.52-.98-1.28-1.73-2.28-2.24ZM209.15,152.77c.48-.31,1.07-.46,1.78-.46.58,0,1.08.13,1.51.39.43.26.76.62.99,1.06.19.36.28.8.32,1.29h-5.95c.07-.33.15-.64.26-.91.25-.61.62-1.06,1.09-1.37Z" style="fill: #fff; stroke: #000; stroke-miterlimit: 10;"/>
        <path d="M231.37,151.07c-.75-.87-1.89-1.3-3.42-1.3-.92,0-1.69.19-2.34.57-.64.38-1.16.94-1.55,1.67v-1.96h-3.64v12.88h3.64v-7.84c0-.54.1-1.01.31-1.4.21-.39.5-.69.9-.91.39-.21.84-.32,1.34-.32.75,0,1.29.22,1.62.67.34.45.5,1.1.5,1.96v7.84h3.75v-8.23c0-1.55-.37-2.76-1.12-3.63Z" style="fill: #fff; stroke: #000; stroke-miterlimit: 10;"/>
      </g>
      <g>
        <polygon points="277.79 193.62 274.56 185.63 270.52 185.63 275.87 197.22 272.62 204.67 276.35 204.67 284.75 185.63 280.97 185.63 277.79 193.62" style="fill: #fff; stroke: #000; stroke-miterlimit: 10;"/>
        <path d="M295.68,186.12c-1-.51-2.21-.77-3.63-.77s-2.65.28-3.7.83c-1.05.55-1.85,1.33-2.42,2.32-.57,1-.85,2.19-.85,3.57s.28,2.54.85,3.54c.57,1,1.38,1.78,2.42,2.34,1.04.56,2.27.84,3.67.84,1.55,0,2.88-.3,3.99-.91s2-1.52,2.67-2.73l-3.16-.98c-.37.62-.85,1.08-1.41,1.39-.57.31-1.26.46-2.06.46-.71,0-1.32-.16-1.82-.48-.5-.32-.88-.77-1.13-1.37-.16-.37-.25-.81-.31-1.29h9.9c.02-.11.03-.26.04-.45,0-.19.01-.36.01-.53,0-1.38-.26-2.56-.78-3.54-.52-.98-1.28-1.73-2.28-2.24ZM290.22,188.36c.48-.31,1.07-.46,1.78-.46.58,0,1.08.13,1.51.39.43.26.76.62.99,1.06.19.36.28.8.32,1.29h-5.95c.07-.33.15-.64.26-.91.25-.61.62-1.06,1.09-1.37Z" style="fill: #fff; stroke: #000; stroke-miterlimit: 10;"/>
        <rect x="301.49" y="176.67" width="3.64" height="21.84" style="fill: #fff; stroke: #000; stroke-miterlimit: 10;"/>
        <rect x="308.72" y="176.67" width="3.64" height="21.84" style="fill: #fff; stroke: #000; stroke-miterlimit: 10;"/>
        <path d="M325.87,186.19c-1.07-.56-2.29-.84-3.65-.84s-2.58.28-3.65.84c-1.07.56-1.92,1.34-2.55,2.35-.62,1.01-.94,2.18-.94,3.53s.31,2.5.94,3.51c.63,1.02,1.47,1.81,2.55,2.37,1.07.56,2.29.84,3.65.84s2.58-.28,3.65-.84c1.07-.56,1.92-1.35,2.55-2.37.62-1.02.94-2.19.94-3.51s-.31-2.52-.94-3.53c-.63-1.01-1.47-1.79-2.55-2.35ZM325.19,193.99c-.31.55-.72.98-1.25,1.29-.52.31-1.1.46-1.74.46s-1.21-.15-1.74-.46c-.52-.31-.94-.74-1.25-1.29-.31-.55-.46-1.19-.46-1.92s.15-1.37.46-1.93c.31-.56.72-.99,1.25-1.29.52-.3,1.1-.45,1.74-.45s1.21.15,1.74.45.94.73,1.25,1.29c.31.56.46,1.2.46,1.93s-.15,1.37-.46,1.92Z" style="fill: #fff; stroke: #000; stroke-miterlimit: 10;"/>
        <polygon points="346.71 185.63 343.86 192.8 340.08 184.65 336.44 192.77 333.61 185.63 329.74 185.63 336.07 199.38 340.1 191.17 344.25 199.38 350.55 185.63 346.71 185.63" style="fill: #fff; stroke: #000; stroke-miterlimit: 10;"/>
      </g>
      <g>
        <path d="M388.36,287.41c0-.62.08-1.14.24-1.58s.4-.78.71-1.02c.32-.24.7-.36,1.15-.36.37,0,.69.06.94.18.25.12.5.29.74.52l1.65-3.08c-.26-.34-.6-.59-1.02-.76-.42-.17-.86-.25-1.33-.25-.67,0-1.33.24-1.96.71-.43.32-.8.73-1.12,1.19v-1.6h-3.56v12.88h3.56v-6.83Z" style="fill: #fff; stroke: #000; stroke-miterlimit: 10;"/>
        <path d="M405.37,293.61c1.11-.61,2-1.52,2.67-2.73l-3.16-.98c-.37.62-.84,1.08-1.41,1.39-.57.31-1.26.46-2.06.46-.71,0-1.32-.16-1.82-.48s-.88-.77-1.13-1.37c-.16-.37-.25-.81-.31-1.29h9.9c.02-.11.03-.26.04-.45,0-.19.01-.36.01-.53,0-1.38-.26-2.56-.78-3.54-.52-.98-1.28-1.73-2.28-2.24-1-.51-2.21-.77-3.63-.77s-2.65.28-3.7.83c-1.05.55-1.85,1.33-2.42,2.32-.57,1-.85,2.19-.85,3.57s.29,2.54.85,3.54c.57,1,1.38,1.78,2.42,2.34,1.04.56,2.27.84,3.67.84,1.55,0,2.88-.3,3.99-.91ZM399.57,284.09c.48-.31,1.07-.46,1.78-.46.58,0,1.08.13,1.51.39.43.26.76.62.99,1.06.19.36.28.8.32,1.29h-5.95c.07-.33.15-.64.26-.91.25-.61.62-1.06,1.09-1.37Z" style="fill: #fff; stroke: #000; stroke-miterlimit: 10;"/>
        <path d="M413.14,293.74c.95.52,1.96.78,3.02.78s2.04-.27,2.87-.81c.6-.39,1.11-.91,1.53-1.55v2.08h3.64v-21.84h-3.64v11.04c-.42-.63-.92-1.15-1.53-1.55-.83-.54-1.79-.81-2.87-.81s-2.07.26-3.02.78-1.72,1.28-2.3,2.28c-.58,1-.87,2.22-.87,3.65s.29,2.63.87,3.64c.58,1.01,1.34,1.77,2.3,2.3ZM414.2,285.82c.32-.56.75-.99,1.29-1.29s1.12-.45,1.74-.45c.54,0,1.07.14,1.58.43.51.29.93.71,1.26,1.27.33.56.49,1.23.49,2.02s-.16,1.46-.49,2.02c-.33.56-.75.98-1.26,1.27-.51.29-1.04.43-1.58.43-.62,0-1.2-.15-1.74-.45s-.97-.73-1.29-1.29c-.32-.56-.48-1.22-.48-1.99s.16-1.43.48-1.99Z" style="fill: #fff; stroke: #000; stroke-miterlimit: 10;"/>
      </g>
      <g>
        <path d="M164.19,405.96c.42.65.94,1.18,1.55,1.58.83.54,1.78.81,2.84.81s2.1-.26,3.04-.78,1.7-1.29,2.28-2.3c.58-1.01.87-2.22.87-3.64s-.29-2.66-.87-3.65c-.58-1-1.34-1.76-2.28-2.28s-1.96-.78-3.04-.78-2.01.27-2.84.81c-.61.4-1.13.93-1.55,1.57v-11.06h-3.64v21.84h3.64v-2.11ZM164.68,399.62c.33-.56.75-.98,1.26-1.27.51-.29,1.04-.43,1.58-.43.63,0,1.22.15,1.75.45.53.3.96.73,1.27,1.29.32.56.48,1.22.48,1.99s-.16,1.43-.48,1.99c-.32.56-.74.99-1.27,1.29-.53.3-1.12.45-1.75.45-.54,0-1.07-.14-1.58-.43-.51-.29-.93-.71-1.26-1.27-.33-.56-.49-1.23-.49-2.02s.16-1.46.49-2.02Z" style="fill: #fff; stroke: #000; stroke-miterlimit: 10;"/>
        <rect x="177.49" y="386.24" width="3.64" height="21.84" style="fill: #fff; stroke: #000; stroke-miterlimit: 10;"/>
        <path d="M196.78,408.08v-12.88h-3.61v7.84c0,.54-.11,1.01-.32,1.4-.21.39-.51.7-.9.91-.38.21-.84.32-1.36.32-.75,0-1.29-.23-1.62-.69-.34-.46-.5-1.11-.5-1.95v-7.84h-3.75v8.23c0,1.53.38,2.74,1.13,3.61.76.88,1.9,1.32,3.43,1.32.91,0,1.69-.19,2.32-.57.63-.38,1.16-.94,1.57-1.67v1.96h3.61Z" style="fill: #fff; stroke: #000; stroke-miterlimit: 10;"/>
        <path d="M200.35,398.07c-.57,1-.85,2.19-.85,3.57s.28,2.54.85,3.54c.57,1,1.38,1.78,2.42,2.34,1.04.56,2.27.84,3.67.84,1.55,0,2.88-.3,3.99-.91,1.11-.61,2-1.52,2.67-2.73l-3.16-.98c-.37.62-.85,1.08-1.41,1.39-.57.31-1.26.46-2.06.46-.71,0-1.32-.16-1.82-.48-.5-.32-.88-.77-1.13-1.37-.16-.37-.25-.81-.31-1.29h9.9c.02-.11.03-.26.04-.45,0-.19.01-.36.01-.53,0-1.38-.26-2.56-.78-3.54-.52-.98-1.28-1.73-2.28-2.24-1-.51-2.21-.77-3.63-.77s-2.65.28-3.7.83c-1.05.55-1.85,1.33-2.42,2.32ZM204.64,397.93c.48-.31,1.07-.46,1.78-.46.58,0,1.08.13,1.51.39.43.26.76.62.99,1.06.19.36.28.8.32,1.29h-5.95c.07-.33.15-.64.26-.91.25-.61.62-1.06,1.09-1.37Z" style="fill: #fff; stroke: #000; stroke-miterlimit: 10;"/>
      </g>
      <g>
        <path d="M146.53,275.76c-1.36,0-2.59.28-3.68.84-1.09.56-1.95,1.34-2.58,2.35-.62,1.01-.94,2.18-.94,3.53s.31,2.5.94,3.51c.63,1.02,1.48,1.81,2.58,2.37,1.09.56,2.32.84,3.68.84.95,0,1.79-.12,2.51-.35.72-.23,1.3-.55,1.75-.97v-3.72c-.22.41-.55.77-.97,1.08-.42.31-.89.55-1.41.73-.52.18-1.06.27-1.62.27-.69,0-1.32-.16-1.89-.48s-1.02-.76-1.36-1.32c-.34-.56-.5-1.21-.5-1.96s.17-1.37.5-1.93c.34-.56.79-1,1.36-1.33.57-.33,1.2-.49,1.89-.49.52,0,1.04.08,1.57.25s1,.41,1.44.71c.44.31.77.67.99,1.08v-3.72c-.45-.39-1.03-.7-1.75-.94-.72-.23-1.55-.35-2.51-.35Z" style="fill: #fff; stroke: #000; stroke-miterlimit: 10;"/>
        <polygon points="159.28 284.03 156.05 276.04 152.02 276.04 157.37 287.63 154.12 295.08 157.85 295.08 166.25 276.04 162.47 276.04 159.28 284.03" style="fill: #fff; stroke: #000; stroke-miterlimit: 10;"/>
        <path d="M176.35,276.18c-.86-.32-1.84-.48-2.94-.48-1.19,0-2.28.16-3.25.49-.97.33-1.79.67-2.46,1.02l1.34,2.46c.19-.13.48-.29.87-.48.39-.19.86-.35,1.4-.48.54-.13,1.11-.2,1.71-.2.39,0,.75.04,1.06.11.32.08.59.2.83.36s.41.38.52.63c.11.25.17.56.17.91v1.37c-.43-.24-.96-.45-1.58-.62-.63-.17-1.35-.25-2.17-.25-1.61,0-2.85.36-3.72,1.09-.88.73-1.32,1.72-1.32,2.97,0,.88.21,1.62.63,2.23s.97,1.07,1.67,1.39c.69.32,1.44.48,2.24.48s1.54-.14,2.25-.42c.72-.28,1.31-.7,1.76-1.26.09-.11.17-.23.24-.35v1.75h3.5v-9.13c0-.88-.24-1.62-.73-2.23-.49-.61-1.16-1.07-2.02-1.39ZM175.18,285.35c-.28.44-.64.77-1.09,1.01-.45.23-.95.35-1.51.35-.39,0-.75-.07-1.08-.21-.33-.14-.58-.35-.77-.62s-.28-.59-.28-.97.08-.69.25-.94.43-.45.78-.59.81-.21,1.37-.21c.69,0,1.35.09,1.97.28.27.08.52.19.77.3h0c0,.62-.14,1.15-.42,1.59Z" style="fill: #fff; stroke: #000; stroke-miterlimit: 10;"/>
        <path d="M189.99,275.76c-.92,0-1.69.19-2.34.57-.64.38-1.16.94-1.55,1.67v-1.96h-3.64v12.88h3.64v-7.84c0-.54.1-1.01.31-1.4.21-.39.5-.7.9-.91.39-.21.84-.32,1.34-.32.75,0,1.29.22,1.62.67.34.45.5,1.1.5,1.96v7.84h3.75v-8.23c0-1.55-.37-2.76-1.12-3.63-.75-.87-1.89-1.3-3.42-1.3Z" style="fill: #fff; stroke: #000; stroke-miterlimit: 10;"/>
      </g>
      <g>
        <path d="M268.35,368.47c-.6-.38-1.37-.57-2.32-.57-.88,0-1.66.19-2.34.56-.68.37-1.25.92-1.72,1.65-.28-.73-.73-1.28-1.34-1.65s-1.4-.56-2.35-.56c-.86,0-1.6.19-2.21.56-.62.37-1.11.92-1.48,1.62v-1.9h-3.5v12.88h3.5v-7.84c0-.56.09-1.04.28-1.44.19-.4.45-.7.78-.9s.73-.29,1.18-.29c.67,0,1.16.22,1.46.66s.45,1.1.45,1.97v7.84h3.61v-7.84c0-.56.09-1.04.28-1.44.19-.4.45-.7.78-.9.34-.2.73-.29,1.18-.29.67,0,1.16.22,1.46.66.3.44.45,1.1.45,1.97v7.84h3.64v-8.23c0-1.05-.15-1.94-.43-2.67s-.73-1.3-1.33-1.68Z" style="fill: #fff; stroke: #000; stroke-miterlimit: 10;"/>
        <path d="M282.19,368.32c-.86-.32-1.84-.48-2.94-.48-1.2,0-2.28.16-3.25.49s-1.79.67-2.46,1.02l1.34,2.46c.19-.13.48-.29.87-.48.39-.19.86-.34,1.4-.48.54-.13,1.11-.2,1.71-.2.39,0,.75.04,1.06.11.32.07.59.2.83.36s.41.38.52.63c.11.25.17.56.17.91v1.37c-.43-.24-.96-.45-1.58-.62s-1.35-.25-2.17-.25c-1.61,0-2.85.36-3.72,1.09-.88.73-1.32,1.72-1.32,2.97,0,.88.21,1.62.63,2.23.42.61.98,1.07,1.67,1.39.69.32,1.44.48,2.24.48s1.54-.14,2.25-.42,1.31-.7,1.76-1.26c.09-.11.16-.23.24-.35v1.75h3.5v-9.13c0-.88-.24-1.62-.73-2.23-.49-.61-1.16-1.07-2.02-1.39ZM281.01,377.49c-.28.44-.64.77-1.09,1.01s-.95.35-1.51.35c-.39,0-.75-.07-1.08-.21-.33-.14-.58-.34-.77-.62-.19-.27-.28-.59-.28-.97s.08-.69.25-.94.43-.45.78-.59c.35-.14.81-.21,1.37-.21.69,0,1.35.09,1.97.28.27.08.52.19.77.3h0c0,.62-.14,1.15-.42,1.59Z" style="fill: #fff; stroke: #000; stroke-miterlimit: 10;"/>
        <path d="M298.01,370.19c-.42-.62-.92-1.12-1.53-1.5-.83-.52-1.79-.78-2.87-.78s-2.07.25-3.02.76c-.95.5-1.72,1.25-2.3,2.23-.58.98-.87,2.19-.87,3.63s.29,2.62.87,3.6c.58.98,1.34,1.72,2.3,2.23s1.96.76,3.02.76,2.04-.26,2.87-.77c.6-.37,1.11-.87,1.53-1.5v1.96c0,.88-.16,1.6-.49,2.18-.33.58-.76,1.01-1.29,1.29-.53.28-1.1.42-1.69.42-.65,0-1.22-.11-1.71-.34-.49-.22-.87-.54-1.15-.94s-.43-.88-.45-1.44h-3.56c.07,1.12.38,2.11.91,2.98s1.3,1.54,2.31,2.02c1.01.48,2.26.71,3.75.71,1.23,0,2.37-.24,3.42-.71,1.05-.48,1.88-1.23,2.51-2.25.63-1.03.94-2.33.94-3.92v-12.6h-3.5v2.01ZM297.52,376.48c-.33.53-.75.93-1.26,1.2-.51.27-1.04.41-1.58.41-.62,0-1.2-.14-1.74-.42s-.97-.69-1.29-1.22c-.32-.53-.48-1.18-.48-1.95s.16-1.44.48-1.97c.32-.53.75-.94,1.29-1.22.54-.28,1.12-.42,1.74-.42.41,0,.81.08,1.2.24.39.16.75.39,1.08.69.33.3.58.67.77,1.12.19.45.28.97.28,1.57,0,.78-.16,1.44-.49,1.97Z" style="fill: #fff; stroke: #000; stroke-miterlimit: 10;"/>
        <path d="M314.76,368.67c-1-.51-2.21-.77-3.63-.77s-2.65.28-3.7.83c-1.05.55-1.85,1.33-2.42,2.32-.57,1-.85,2.19-.85,3.57s.29,2.54.85,3.54c.57,1,1.38,1.78,2.42,2.34,1.04.56,2.27.84,3.67.84,1.55,0,2.88-.3,3.99-.91,1.11-.61,2-1.52,2.67-2.73l-3.16-.98c-.37.62-.84,1.08-1.41,1.39-.57.31-1.26.46-2.06.46-.71,0-1.32-.16-1.82-.48s-.88-.77-1.13-1.37c-.16-.37-.25-.81-.31-1.29h9.9c.02-.11.03-.26.04-.45,0-.19.01-.36.01-.53,0-1.38-.26-2.56-.78-3.54-.52-.98-1.28-1.73-2.28-2.24ZM309.3,370.91c.48-.31,1.07-.46,1.78-.46.58,0,1.08.13,1.51.39.43.26.76.62.99,1.06.19.36.28.8.32,1.29h-5.95c.07-.33.15-.64.26-.91.25-.61.62-1.06,1.09-1.37Z" style="fill: #fff; stroke: #000; stroke-miterlimit: 10;"/>
        <path d="M328.11,367.9c-.92,0-1.69.19-2.34.57-.64.38-1.16.94-1.55,1.67v-1.96h-3.64v12.88h3.64v-7.84c0-.54.1-1.01.31-1.4.21-.39.5-.69.9-.91.39-.21.84-.32,1.34-.32.75,0,1.29.22,1.62.67s.5,1.1.5,1.96v7.84h3.75v-8.23c0-1.55-.37-2.76-1.12-3.63-.75-.87-1.89-1.3-3.42-1.3Z" style="fill: #fff; stroke: #000; stroke-miterlimit: 10;"/>
        <polygon points="340.29 363.7 336.79 363.7 336.79 368.18 334.57 368.18 334.57 371.23 336.79 371.23 336.79 381.06 340.29 381.06 340.29 371.23 342.53 371.23 342.53 368.18 340.29 368.18 340.29 363.7" style="fill: #fff; stroke: #000; stroke-miterlimit: 10;"/>
        <path d="M352.94,368.32c-.86-.32-1.84-.48-2.94-.48-1.2,0-2.28.16-3.25.49s-1.79.67-2.46,1.02l1.34,2.46c.19-.13.48-.29.87-.48.39-.19.86-.34,1.4-.48.54-.13,1.11-.2,1.71-.2.39,0,.75.04,1.06.11.32.07.59.2.83.36s.41.38.52.63c.11.25.17.56.17.91v1.37c-.43-.24-.96-.45-1.58-.62s-1.35-.25-2.17-.25c-1.61,0-2.85.36-3.72,1.09-.88.73-1.32,1.72-1.32,2.97,0,.88.21,1.62.63,2.23.42.61.98,1.07,1.67,1.39.69.32,1.44.48,2.24.48s1.54-.14,2.25-.42,1.31-.7,1.76-1.26c.09-.11.16-.23.24-.35v1.75h3.5v-9.13c0-.88-.24-1.62-.73-2.23-.49-.61-1.16-1.07-2.02-1.39ZM351.77,377.49c-.28.44-.64.77-1.09,1.01s-.95.35-1.51.35c-.39,0-.75-.07-1.08-.21-.33-.14-.58-.34-.77-.62-.19-.27-.28-.59-.28-.97s.08-.69.25-.94.43-.45.78-.59c.35-.14.81-.21,1.37-.21.69,0,1.35.09,1.97.28.27.08.52.19.77.3h0c0,.62-.14,1.15-.42,1.59Z" style="fill: #fff; stroke: #000; stroke-miterlimit: 10;"/>
      </g>
      <g>
        <path d="M87,503.45c-.94-.52-1.96-.78-3.04-.78s-2.01.27-2.84.81c-.61.4-1.13.92-1.55,1.57v-11.06h-3.64v21.84h3.64v-2.11c.42.65.94,1.18,1.55,1.58.83.54,1.78.81,2.84.81s2.1-.26,3.04-.78c.94-.52,1.7-1.29,2.28-2.3s.87-2.22.87-3.64-.29-2.66-.87-3.65c-.58-1-1.34-1.76-2.28-2.28ZM85.92,511.38c-.32.56-.74.99-1.27,1.29-.53.3-1.12.45-1.75.45-.54,0-1.07-.14-1.58-.43-.51-.29-.93-.71-1.26-1.27-.33-.56-.49-1.23-.49-2.02s.16-1.46.49-2.02c.33-.56.75-.98,1.26-1.27.51-.29,1.04-.43,1.58-.43.63,0,1.22.15,1.75.45.53.3.96.73,1.27,1.29.32.56.48,1.22.48,1.99s-.16,1.43-.48,1.99Z" style="fill: #fff;"/>
        <rect x="92.87" y="493.99" width="3.64" height="21.84" style="fill: #fff;"/>
        <path d="M108.57,503.09c-.86-.32-1.84-.48-2.94-.48-1.19,0-2.28.16-3.25.49s-1.79.67-2.46,1.02l1.34,2.46c.19-.13.48-.29.87-.48.39-.19.86-.34,1.4-.48.54-.13,1.11-.2,1.71-.2.39,0,.75.04,1.06.11.32.07.59.2.83.36s.41.38.52.63c.11.25.17.56.17.91v1.37c-.43-.24-.96-.45-1.58-.62-.63-.17-1.35-.25-2.17-.25-1.61,0-2.85.36-3.72,1.09-.88.73-1.32,1.72-1.32,2.97,0,.88.21,1.62.63,2.23.42.61.97,1.07,1.67,1.39.69.32,1.44.48,2.24.48s1.54-.14,2.25-.42c.72-.28,1.31-.7,1.76-1.26.09-.11.17-.23.24-.35v1.75h3.5v-9.13c0-.88-.24-1.62-.73-2.23s-1.16-1.07-2.02-1.39ZM107.4,512.26c-.28.44-.64.77-1.09,1.01-.45.23-.95.35-1.51.35-.39,0-.75-.07-1.08-.21s-.58-.34-.77-.62c-.19-.27-.28-.59-.28-.97s.08-.69.25-.94.43-.45.78-.59c.35-.14.81-.21,1.37-.21.69,0,1.35.09,1.97.28.27.08.52.19.77.3h0c0,.62-.14,1.15-.42,1.59Z" style="fill: #fff;"/>
        <path d="M120.92,502.67c-1.36,0-2.59.28-3.68.84-1.09.56-1.95,1.34-2.58,2.35-.63,1.01-.94,2.18-.94,3.53s.31,2.5.94,3.51c.62,1.02,1.48,1.81,2.58,2.37,1.09.56,2.32.84,3.68.84.95,0,1.79-.12,2.51-.35.72-.23,1.3-.56,1.75-.97v-3.72c-.22.41-.55.77-.97,1.08-.42.31-.89.55-1.41.73-.52.18-1.06.27-1.62.27-.69,0-1.32-.16-1.89-.48-.57-.32-1.02-.76-1.36-1.32-.34-.56-.5-1.21-.5-1.96s.17-1.37.5-1.93c.34-.56.79-1,1.36-1.33.57-.33,1.2-.49,1.89-.49.52,0,1.04.08,1.57.25.52.17,1,.41,1.44.71.44.31.77.67.99,1.08v-3.72c-.45-.39-1.03-.7-1.75-.94s-1.55-.35-2.51-.35Z" style="fill: #fff;"/>
        <polygon points="140.86 502.95 136.52 502.95 131.79 507.49 131.79 493.99 128.29 493.99 128.29 515.83 131.79 515.83 131.79 509.27 137.11 515.83 141.42 515.83 135.31 508.27 140.86 502.95" style="fill: #fff;"/>
      </g>
      <g>
        <polygon points="260.49 286.61 264.63 294.82 270.93 281.07 267.1 281.07 264.24 288.24 260.46 280.09 256.82 288.21 253.99 281.07 250.13 281.07 256.46 294.82 260.49 286.61"/>
        <path d="M276.28,286.11c0-.54.1-1.01.31-1.4.21-.39.5-.69.9-.91.39-.21.84-.32,1.34-.32.77,0,1.31.22,1.64.67.33.45.49,1.1.49,1.96v7.84h3.64v-8.37c0-1.06-.16-1.96-.48-2.7-.32-.74-.8-1.29-1.46-1.67-.65-.37-1.48-.56-2.49-.56s-1.86.24-2.55.73c-.57.4-1.01.91-1.34,1.54v-10.81h-3.64v21.84h3.64v-7.84Z"/>
        <path d="M290.2,274.04c-.6,0-1.11.19-1.54.57-.43.38-.64.87-.64,1.47s.21,1.06.64,1.46c.43.39.94.59,1.54.59s1.11-.2,1.53-.59c.42-.39.63-.88.63-1.46s-.21-1.09-.63-1.47c-.42-.38-.93-.57-1.53-.57Z"/>
        <rect x="288.41" y="281.07" width="3.53" height="12.88"/>
        <polygon points="296.33 293.95 299.83 293.95 299.83 284.12 302.07 284.12 302.07 281.07 299.83 281.07 299.83 276.59 296.33 276.59 296.33 281.07 294.12 281.07 294.12 284.12 296.33 284.12 296.33 293.95"/>
        <path d="M316.01,283.8c-.52-.98-1.28-1.73-2.28-2.24-1-.51-2.21-.77-3.63-.77s-2.65.28-3.7.83c-1.05.55-1.85,1.33-2.42,2.32-.57,1-.85,2.19-.85,3.57s.28,2.54.85,3.54c.57,1,1.38,1.78,2.42,2.34,1.04.56,2.27.84,3.67.84,1.55,0,2.88-.3,3.99-.91,1.11-.61,2-1.52,2.67-2.73l-3.16-.98c-.37.62-.85,1.08-1.41,1.39-.57.31-1.26.46-2.06.46-.71,0-1.32-.16-1.82-.48-.5-.32-.88-.77-1.13-1.37-.16-.37-.25-.81-.31-1.29h9.9c.02-.11.03-.26.04-.45,0-.19.01-.36.01-.53,0-1.38-.26-2.56-.78-3.54ZM308.27,283.8c.48-.31,1.07-.46,1.78-.46.58,0,1.08.13,1.51.39.43.26.76.62.99,1.06.19.36.28.8.32,1.29h-5.95c.07-.33.15-.64.26-.91.25-.61.62-1.06,1.09-1.37Z"/>
      </g>
    </g>
  </g>
</svg>